<?xml version="1.0" standalone="no"?>
<!DOCTYPE svg PUBLIC "-//W3C//DTD SVG 20010904//EN"
 "http://www.w3.org/TR/2001/REC-SVG-20010904/DTD/svg10.dtd">
<svg version="1.0" xmlns="http://www.w3.org/2000/svg"
 width="626.000000pt" height="626.000000pt" viewBox="0 0 626.000000 626.000000"
 preserveAspectRatio="xMidYMid meet">

<g transform="translate(0.000000,626.000000) scale(0.100000,-0.100000)"
fill="#000000" stroke="none">
<path d="M4180 6129 c-91 -16 -230 -40 -310 -53 -80 -13 -226 -39 -325 -56
-203 -35 -389 -67 -610 -103 -82 -14 -161 -28 -175 -31 -14 -4 -92 -18 -175
-31 -210 -34 -376 -62 -470 -80 -44 -8 -136 -25 -205 -36 -69 -12 -188 -32
-265 -45 -77 -13 -209 -36 -293 -49 -232 -39 -287 -66 -344 -175 l-23 -45 -3
-2505 c-2 -1378 0 -2528 3 -2556 9 -78 57 -150 125 -188 l55 -31 1880 0 1880
0 56 23 c77 31 152 105 192 189 l32 68 0 2450 0 2450 -28 60 c-15 32 -39 74
-53 93 -55 71 -183 131 -281 132 -17 0 -35 5 -38 10 -4 6 -15 66 -26 133 -24
149 -58 228 -128 296 -55 54 -111 83 -189 100 -72 15 -92 14 -282 -20z m295
-153 c53 -24 100 -71 117 -115 15 -39 48 -232 42 -242 -7 -12 -2434 -12 -2434
-1 0 5 87 24 193 42 105 18 588 102 1072 185 484 84 898 153 920 154 23 0 62
-9 90 -23z m425 -526 c47 -13 106 -63 133 -113 l22 -42 0 -2420 0 -2420 -22
-42 c-29 -53 -84 -98 -139 -112 -30 -8 -582 -11 -1854 -11 -1942 0 -1862 -2
-1889 48 -8 14 -11 765 -11 2538 0 2273 1 2519 15 2541 9 13 26 28 38 33 31
12 3662 13 3707 0z"/>
<path d="M1706 5128 c-2 -7 -9 -39 -16 -70 -18 -91 -74 -144 -170 -164 l-55
-11 0 -2008 c0 -1775 2 -2009 15 -2015 8 -4 40 -15 72 -24 62 -18 123 -74 134
-123 3 -16 10 -45 15 -66 l10 -37 1387 2 1387 3 14 64 c11 53 21 71 56 106 35
35 54 46 106 57 l64 14 0 2019 0 2019 -42 8 c-102 17 -163 75 -185 173 l-13
60 -1388 3 c-1105 2 -1388 0 -1391 -10z m2724 -105 c31 -83 73 -129 154 -168
l76 -36 -2 -1947 -3 -1947 -55 -19 c-71 -26 -144 -97 -161 -157 -7 -24 -17
-50 -22 -56 -7 -10 -284 -13 -1323 -13 l-1314 0 -11 27 c-43 113 -96 170 -180
198 l-49 17 0 1947 0 1948 38 11 c21 7 58 26 81 42 41 30 101 111 101 136 0 7
4 24 10 38 l10 26 1317 -2 1317 -3 16 -42z"/>
<path d="M2189 4338 c-5 -12 -36 -525 -32 -530 2 -5 21 -8 42 -8 37 0 39 2 45
38 3 20 6 69 7 107 2 158 30 161 81 10 53 -158 53 -157 90 -153 30 3 33 7 70
108 52 143 65 170 81 170 17 0 27 -68 27 -177 0 -95 4 -103 50 -103 22 0 41 3
43 8 5 8 -22 500 -29 520 -2 9 -20 12 -55 10 l-51 -3 -60 -163 c-43 -115 -65
-162 -75 -160 -8 2 -31 50 -53 113 -21 61 -46 133 -57 160 l-19 50 -52 3 c-28
2 -53 2 -53 0z"/>
<path d="M2770 4070 l0 -271 158 3 157 3 3 37 3 37 -108 3 -108 3 0 75 0 75
93 3 92 3 0 39 0 39 -92 3 -93 3 -3 62 -3 62 98 3 98 3 3 43 3 42 -150 0 -151
0 0 -270z"/>
<path d="M3150 4070 l0 -271 43 3 42 3 5 155 c4 123 8 155 19 155 7 0 58 -70
111 -155 l98 -155 44 0 43 0 0 265 0 265 -42 3 -42 3 -3 -153 c-3 -125 -6
-153 -17 -153 -8 0 -58 68 -111 150 l-95 150 -48 3 -47 3 0 -271z"/>
<path d="M3640 4143 c0 -187 1 -201 24 -249 34 -73 79 -99 172 -99 60 0 77 4
112 28 23 15 52 46 64 70 22 40 23 53 23 242 l0 200 -39 3 c-24 2 -42 -2 -47
-10 -5 -7 -8 -92 -7 -188 1 -143 -1 -181 -15 -206 -23 -44 -42 -56 -87 -58
-49 -1 -87 33 -100 90 -5 21 -10 114 -10 207 l0 167 -45 0 -45 0 0 -197z"/>
<path d="M3632 3401 l-184 -6 -24 -28 c-28 -32 -30 -56 -9 -97 24 -47 63 -54
271 -45 289 11 294 8 295 -224 1 -233 9 -309 38 -332 54 -44 133 -9 146 65 4
20 3 134 -2 253 -10 245 -17 268 -94 343 -73 71 -136 81 -437 71z"/>
<path d="M2244 3382 c-69 -24 -124 -70 -160 -134 l-29 -53 0 -253 0 -254 28
-24 c38 -33 86 -32 121 2 l26 27 0 218 c0 120 4 229 10 243 21 55 44 61 292
66 219 5 228 6 250 28 34 33 31 97 -5 128 -28 24 -30 24 -255 24 -190 -1 -235
-4 -278 -18z"/>
<path d="M3280 3010 c-82 -20 -93 -128 -15 -164 25 -12 66 -16 168 -16 110 0
139 -3 151 -16 13 -13 16 -42 16 -160 l0 -146 29 -29 c37 -36 79 -38 118 -5
l28 24 3 209 c2 135 -1 221 -8 246 -18 60 -45 67 -267 66 -103 -1 -204 -5
-223 -9z"/>
<path d="M2465 2985 l-25 -24 0 -229 0 -229 25 -27 24 -26 229 0 c217 0 231 1
256 21 l26 20 0 235 0 235 -25 24 -24 25 -231 0 -231 0 -24 -25z m343 -167 c7
-7 12 -42 12 -88 0 -46 -5 -81 -12 -88 -7 -7 -41 -12 -84 -12 -94 0 -104 9
-104 100 0 91 10 100 104 100 43 0 77 -5 84 -12z"/>
<path d="M3259 2715 c-38 -21 -52 -63 -47 -146 3 -63 7 -74 31 -95 39 -33 81
-31 118 5 27 28 29 34 29 110 0 69 -3 83 -22 105 -28 32 -74 41 -109 21z"/>
<path d="M3429 2240 c-189 -6 -202 -11 -214 -82 -4 -22 -4 -128 0 -236 10
-264 -15 -242 282 -242 239 1 248 2 271 47 19 35 16 436 -3 473 -17 33 -66 51
-130 48 -22 -1 -115 -5 -206 -8z m161 -199 c5 -11 10 -49 10 -85 0 -87 -10
-96 -104 -96 -92 0 -101 9 -101 100 0 92 8 100 106 100 67 0 80 -3 89 -19z"/>
<path d="M2469 2211 c-29 -29 -29 -30 -29 -154 0 -120 1 -127 26 -156 21 -25
33 -31 65 -31 58 0 89 34 89 97 0 28 7 58 16 71 14 21 22 22 155 22 156 0 188
9 208 58 16 37 5 77 -26 102 -24 19 -41 20 -250 20 l-225 0 -29 -29z"/>
<path d="M4015 2025 l-25 -24 0 -223 c0 -247 -3 -262 -60 -290 -30 -15 -65
-18 -248 -18 l-214 0 -29 -29 c-36 -37 -38 -79 -5 -118 l24 -28 249 0 c241 0
249 1 296 24 61 29 113 83 141 141 20 42 21 62 21 293 l0 249 -28 24 c-38 32
-90 32 -122 -1z"/>
<path d="M2083 2016 l-28 -24 3 -244 3 -243 30 -63 c32 -66 84 -114 152 -139
21 -7 116 -12 275 -12 l244 -1 29 29 c32 33 36 58 15 100 -25 47 -49 51 -287
51 l-221 0 -27 28 -28 28 -5 233 -4 234 -28 23 c-36 32 -86 32 -123 0z"/>
<path d="M2883 1845 c-90 -39 -62 -165 37 -165 96 0 123 129 34 166 -39 16
-31 17 -71 -1z"/>
</g>
</svg>
