<svg xmlns="http://www.w3.org/2000/svg" xmlns:xlink="http://www.w3.org/1999/xlink" width="500" zoomAndPan="magnify" viewBox="0 0 375 149.999998" height="200" preserveAspectRatio="xMidYMid meet" version="1.0"><defs><g/><clipPath id="e73de67366"><rect x="0" width="358" y="0" height="129"/></clipPath></defs><g transform="matrix(1, 0, 0, 1, 9, -0.00000000000000755)"><g clip-path="url(#e73de67366)"><g fill="#000000" fill-opacity="1"><g transform="translate(0.375003, 97.848732)"><g><path d="M 62.3125 -49.140625 C 68.382812 -49.140625 72.675781 -47.488281 75.1875 -44.1875 C 77.695312 -40.882812 78.953125 -36.328125 78.953125 -30.515625 L 78.953125 0 L 62.3125 0 L 62.3125 -28.4375 C 62.3125 -31.144531 61.75 -33.070312 60.625 -34.21875 C 59.5 -35.375 58.210938 -35.953125 56.765625 -35.953125 C 55.242188 -35.953125 53.820312 -35.40625 52.5 -34.3125 C 51.175781 -33.226562 50.453125 -31.367188 50.328125 -28.734375 L 50.328125 0 L 33.6875 0 L 33.6875 -28.4375 C 33.6875 -31.144531 33.125 -33.070312 32 -34.21875 C 30.875 -35.375 29.585938 -35.953125 28.140625 -35.953125 C 26.617188 -35.953125 25.179688 -35.40625 23.828125 -34.3125 C 22.472656 -33.226562 21.757812 -31.367188 21.6875 -28.734375 L 21.6875 0 L 4.953125 0 L 4.953125 -47.546875 L 21.6875 -47.546875 L 21.6875 -43 C 23.007812 -44.644531 24.726562 -46.078125 26.84375 -47.296875 C 28.957031 -48.523438 31.238281 -49.140625 33.6875 -49.140625 C 37.582031 -49.140625 40.601562 -48.425781 42.75 -47 C 44.894531 -45.582031 46.660156 -43.585938 48.046875 -41.015625 C 48.835938 -42.335938 50.054688 -43.625 51.703125 -44.875 C 53.359375 -46.125 55.144531 -47.144531 57.0625 -47.9375 C 58.976562 -48.738281 60.726562 -49.140625 62.3125 -49.140625 Z M 62.3125 -49.140625 "/></g></g></g><g fill="#000000" fill-opacity="1"><g transform="translate(83.28192, 97.848732)"><g><path d="M 49.53125 -17.9375 L 19.71875 -17.9375 C 20.507812 -16.144531 21.644531 -14.71875 23.125 -13.65625 C 24.613281 -12.601562 26.1875 -11.945312 27.84375 -11.6875 C 30.082031 -11.351562 32.09375 -11.398438 33.875 -11.828125 C 35.65625 -12.265625 37.15625 -12.84375 38.375 -13.5625 C 39.601562 -14.289062 40.414062 -14.921875 40.8125 -15.453125 L 47.25 -6.4375 C 44.21875 -3.664062 41.195312 -1.648438 38.1875 -0.390625 C 35.1875 0.859375 31.4375 1.484375 26.9375 1.484375 C 22.644531 1.484375 18.664062 0.347656 15 -1.921875 C 11.34375 -4.203125 8.421875 -7.257812 6.234375 -11.09375 C 4.054688 -14.925781 2.96875 -19.15625 2.96875 -23.78125 C 2.96875 -28.46875 4.054688 -32.722656 6.234375 -36.546875 C 8.421875 -40.378906 11.34375 -43.4375 15 -45.71875 C 18.664062 -48 22.644531 -49.140625 26.9375 -49.140625 C 31.300781 -49.140625 35.234375 -48.082031 38.734375 -45.96875 C 42.234375 -43.851562 44.988281 -40.976562 47 -37.34375 C 49.019531 -33.707031 50.03125 -29.546875 50.03125 -24.859375 C 50.03125 -23.671875 49.992188 -22.5 49.921875 -21.34375 C 49.859375 -20.1875 49.726562 -19.050781 49.53125 -17.9375 Z M 26.9375 -34.96875 C 24.957031 -34.96875 23.222656 -34.351562 21.734375 -33.125 C 20.253906 -31.90625 19.21875 -30.207031 18.625 -28.03125 L 35.65625 -28.03125 C 35.195312 -30.34375 34.175781 -32.078125 32.59375 -33.234375 C 31.007812 -34.390625 29.125 -34.96875 26.9375 -34.96875 Z M 26.9375 -34.96875 "/></g></g></g><g fill="#000000" fill-opacity="1"><g transform="translate(136.275055, 97.848732)"><g><path d="M 35.171875 -49.140625 C 41.242188 -49.140625 45.78125 -47.503906 48.78125 -44.234375 C 51.789062 -40.960938 53.296875 -36.390625 53.296875 -30.515625 L 53.296875 0 L 36.546875 0 L 36.65625 -28.4375 C 36.65625 -30.28125 36.273438 -31.742188 35.515625 -32.828125 C 34.753906 -33.921875 33.8125 -34.710938 32.6875 -35.203125 C 31.5625 -35.703125 30.503906 -35.953125 29.515625 -35.953125 C 28.523438 -35.953125 27.421875 -35.722656 26.203125 -35.265625 C 24.984375 -34.804688 23.941406 -34.046875 23.078125 -32.984375 C 22.222656 -31.929688 21.757812 -30.515625 21.6875 -28.734375 L 21.6875 0 L 4.953125 0 L 4.953125 -47.546875 L 21.6875 -47.546875 L 21.6875 -43 C 23.144531 -44.644531 25.09375 -46.078125 27.53125 -47.296875 C 29.976562 -48.523438 32.523438 -49.140625 35.171875 -49.140625 Z M 35.171875 -49.140625 "/></g></g></g><g fill="#000000" fill-opacity="1"><g transform="translate(193.527349, 97.848732)"><g><path d="M 23.078125 1.484375 C 17.066406 1.484375 12.539062 -0.148438 9.5 -3.421875 C 6.46875 -6.691406 4.953125 -11.226562 4.953125 -17.03125 L 4.953125 -47.546875 L 21.59375 -47.546875 L 21.59375 -19.21875 C 21.59375 -17.4375 21.972656 -15.984375 22.734375 -14.859375 C 23.492188 -13.734375 24.429688 -12.921875 25.546875 -12.421875 C 26.671875 -11.929688 27.695312 -11.6875 28.625 -11.6875 C 29.6875 -11.6875 30.8125 -11.914062 32 -12.375 C 33.1875 -12.84375 34.222656 -13.601562 35.109375 -14.65625 C 36.003906 -15.71875 36.484375 -17.140625 36.546875 -18.921875 L 36.546875 -47.546875 L 53.203125 -47.546875 L 53.203125 0 L 36.546875 0 L 36.546875 -4.65625 C 35.097656 -3 33.132812 -1.5625 30.65625 -0.34375 C 28.175781 0.875 25.648438 1.484375 23.078125 1.484375 Z M 23.078125 1.484375 "/></g></g></g><g fill="#ff751f" fill-opacity="1"><g transform="translate(250.684991, 97.848732)"><g><path d="M 24.859375 1.484375 C 20.441406 1.484375 16.582031 0.347656 13.28125 -1.921875 C 9.976562 -4.203125 7.429688 -7.257812 5.640625 -11.09375 C 3.859375 -14.925781 2.96875 -19.15625 2.96875 -23.78125 C 2.96875 -28.46875 3.859375 -32.722656 5.640625 -36.546875 C 7.429688 -40.378906 9.976562 -43.4375 13.28125 -45.71875 C 16.582031 -48 20.441406 -49.140625 24.859375 -49.140625 C 26.578125 -49.140625 28.359375 -48.820312 30.203125 -48.1875 C 32.054688 -47.5625 33.742188 -46.785156 35.265625 -45.859375 C 36.785156 -44.941406 37.8125 -43.988281 38.34375 -43 L 38.34375 -47.546875 L 54.984375 -47.546875 L 54.984375 21.6875 L 38.34375 21.6875 L 38.34375 -2.671875 C 34.3125 0.0976562 29.816406 1.484375 24.859375 1.484375 Z M 28.828125 -34.875 C 26.253906 -34.875 24.09375 -33.800781 22.34375 -31.65625 C 20.59375 -29.507812 19.71875 -26.914062 19.71875 -23.875 C 19.71875 -20.832031 20.59375 -18.238281 22.34375 -16.09375 C 24.09375 -13.945312 26.253906 -12.875 28.828125 -12.875 C 31.472656 -12.875 33.71875 -13.945312 35.5625 -16.09375 C 37.414062 -18.238281 38.34375 -20.832031 38.34375 -23.875 C 38.34375 -26.914062 37.414062 -29.507812 35.5625 -31.65625 C 33.71875 -33.800781 31.472656 -34.875 28.828125 -34.875 Z M 28.828125 -34.875 "/></g></g></g><g fill="#ff751f" fill-opacity="1"><g transform="translate(310.611806, 97.848732)"><g><path d="M 35.359375 -49.140625 C 37.148438 -49.140625 38.882812 -48.941406 40.5625 -48.546875 C 42.25 -48.148438 43.390625 -47.816406 43.984375 -47.546875 L 40.015625 -30.109375 C 38.828125 -30.640625 37.488281 -31.171875 36 -31.703125 C 34.519531 -32.234375 32.625 -32.429688 30.3125 -32.296875 C 29.1875 -32.222656 27.945312 -31.90625 26.59375 -31.34375 C 25.238281 -30.789062 24.082031 -29.816406 23.125 -28.421875 C 22.164062 -27.035156 21.6875 -25.054688 21.6875 -22.484375 C 21.6875 -22.023438 21.6875 -20.953125 21.6875 -19.265625 C 21.6875 -17.578125 21.6875 -15.660156 21.6875 -13.515625 C 21.6875 -11.367188 21.6875 -9.253906 21.6875 -7.171875 C 21.6875 -5.097656 21.6875 -3.382812 21.6875 -2.03125 C 21.6875 -0.675781 21.6875 0 21.6875 0 L 4.953125 0 L 4.953125 -47.546875 L 21.6875 -47.546875 L 21.6875 -43 C 22.21875 -43.71875 23.160156 -44.554688 24.515625 -45.515625 C 25.867188 -46.472656 27.503906 -47.316406 29.421875 -48.046875 C 31.335938 -48.773438 33.316406 -49.140625 35.359375 -49.140625 Z M 35.359375 -49.140625 "/></g></g></g></g></g></svg>